<svg xmlns="http://www.w3.org/2000/svg" width="112" height="47" viewBox="0 0 112 47" fill="none">
    <path fill-rule="evenodd" clip-rule="evenodd"
        d="M111.383 24.6626C111.383 16.7857 107.568 10.5703 100.275 10.5703C92.9522 10.5703 88.5215 16.7857 88.5215 24.6011C88.5215 33.8626 93.7523 38.5395 101.26 38.5395C104.921 38.5395 107.691 37.7088 109.783 36.5395V30.3857C107.691 31.4319 105.291 32.078 102.245 32.078C99.2599 32.078 96.6138 31.0319 96.2753 27.4011H111.321C111.321 27.0011 111.383 25.4011 111.383 24.6626ZM96.183 21.7395C96.183 18.2626 98.3061 16.8165 100.245 16.8165C102.121 16.8165 104.121 18.2626 104.121 21.7395H96.183Z"
        fill="#635BFF" />
    <path fill-rule="evenodd" clip-rule="evenodd"
        d="M76.6453 10.5703C73.6299 10.5703 71.6915 11.9857 70.6145 12.9703L70.2145 11.0626H63.4453V46.9395L71.1376 45.3088L71.1684 36.6011C72.2761 37.4011 73.9068 38.5395 76.6145 38.5395C82.1222 38.5395 87.1376 34.1088 87.1376 24.3549C87.1068 15.4319 82.0299 10.5703 76.6453 10.5703ZM74.7992 31.7703C72.9838 31.7703 71.9068 31.1242 71.1684 30.3242L71.1376 18.9088C71.9376 18.0165 73.0453 17.4011 74.7992 17.4011C77.5992 17.4011 79.5376 20.5395 79.5376 24.5703C79.5376 28.6934 77.6299 31.7703 74.7992 31.7703Z"
        fill="#635BFF" />
    <path fill-rule="evenodd" clip-rule="evenodd"
        d="M52.8613 8.75535L60.5844 7.09381V0.847656L52.8613 2.47843V8.75535Z" fill="#635BFF" />
    <path d="M60.5844 11.0938H52.8613V38.0168H60.5844V11.0938Z" fill="#635BFF" />
    <path fill-rule="evenodd" clip-rule="evenodd"
        d="M44.5838 13.3684L44.0915 11.0915H37.4453V38.0146H45.1376V19.7684C46.953 17.3992 50.0299 17.8299 50.9838 18.1684V11.0915C49.9992 10.7223 46.3992 10.0453 44.5838 13.3684Z"
        fill="#635BFF" />
    <path fill-rule="evenodd" clip-rule="evenodd"
        d="M29.2006 4.41797L21.6929 6.01797L21.6621 30.6641C21.6621 35.218 25.0775 38.5718 29.6313 38.5718C32.1544 38.5718 34.0006 38.1103 35.016 37.5564V31.3103C34.0313 31.7103 29.1698 33.1257 29.1698 28.5718V17.6487H35.016V11.0949H29.1698L29.2006 4.41797Z"
        fill="#635BFF" />
    <path fill-rule="evenodd" clip-rule="evenodd"
        d="M8.39985 18.9088C8.39985 17.7088 9.38447 17.2472 11.0152 17.2472C13.3537 17.2472 16.3075 17.9549 18.646 19.2165V11.9857C16.0922 10.9703 13.5691 10.5703 11.0152 10.5703C4.76908 10.5703 0.615234 13.8319 0.615234 19.278C0.615234 27.7703 12.3075 26.4165 12.3075 30.078C12.3075 31.4934 11.0768 31.9549 9.3537 31.9549C6.79985 31.9549 3.53831 30.9088 0.953695 29.4934V36.8165C3.81523 38.0472 6.70754 38.5703 9.3537 38.5703C15.7537 38.5703 20.1537 35.4011 20.1537 29.8934C20.1229 20.7242 8.39985 22.3549 8.39985 18.9088Z"
        fill="#635BFF" />
</svg>