<svg xmlns="http://www.w3.org/2000/svg" width="135" height="32" viewBox="0 0 135 32" fill="none">
    <path
        d="M38.8027 15.0299C39.3385 13.9909 40.0642 13.1933 40.9833 12.6336C41.9025 12.0739 42.9278 11.7949 44.0626 11.7949C45.0536 11.7949 45.9197 11.9952 46.6625 12.394C47.4054 12.7928 47.9993 13.296 48.4477 13.9036V12.0106H51.8265V25.2842H48.4477V23.3432C48.0164 23.9662 47.4208 24.4814 46.6625 24.8888C45.9043 25.2962 45.0296 25.4999 44.0386 25.4999C42.9209 25.4999 41.9025 25.2123 40.9833 24.6372C40.0642 24.0621 39.3385 23.2525 38.8027 22.205C38.267 21.1592 38 19.9576 38 18.5986C38 17.2567 38.2687 16.0671 38.8027 15.0299ZM47.9668 16.5515C47.6467 15.9678 47.2154 15.5211 46.6728 15.2096C46.1302 14.8981 45.5465 14.7423 44.9235 14.7423C44.3005 14.7423 43.7254 14.8947 43.1982 15.1976C42.671 15.5006 42.2431 15.9439 41.9162 16.5276C41.5893 17.1112 41.4249 17.801 41.4249 18.6003C41.4249 19.3996 41.5893 20.098 41.9162 20.6971C42.2431 21.2961 42.6744 21.7548 43.2102 22.0749C43.7459 22.395 44.3159 22.5542 44.9235 22.5542C45.5465 22.5542 46.1302 22.3984 46.6728 22.0869C47.2154 21.7754 47.6467 21.3286 47.9668 20.745C48.2868 20.1613 48.446 19.463 48.446 18.6482C48.446 17.8335 48.2868 17.1335 47.9668 16.5515Z"
        fill="#24282C" />
    <path
        d="M55.3371 9.86676C54.9451 9.49191 54.75 9.02464 54.75 8.46494C54.75 7.90695 54.9451 7.43968 55.3371 7.06312C55.729 6.68828 56.2203 6.5 56.8108 6.5C57.4013 6.5 57.8925 6.68828 58.2845 7.06312C58.6765 7.43797 58.8716 7.90524 58.8716 8.46494C58.8716 9.02464 58.6765 9.49191 58.2845 9.86676C57.8925 10.2416 57.4013 10.4299 56.8108 10.4299C56.2203 10.4299 55.729 10.2433 55.3371 9.86676ZM58.4642 12.0114V25.285H55.1094V12.0114H58.4642Z"
        fill="#24282C" />
    <path
        d="M69.6276 25.2853L65.1243 19.6319V25.2853H61.7695V7.55469H65.1243V17.6413L69.5813 12.0117H73.9426L68.0974 18.6716L73.9905 25.2836H69.6276V25.2853Z"
        fill="#24282C" />
    <path
        d="M88.0043 19.6547H78.3011C78.3816 20.6132 78.7171 21.3646 79.3076 21.9072C79.8981 22.4497 80.6255 22.7219 81.4882 22.7219C82.7342 22.7219 83.6209 22.1862 84.148 21.1164H87.7664C87.383 22.395 86.6487 23.4442 85.5618 24.2675C84.4749 25.0908 83.1416 25.5016 81.5601 25.5016C80.2815 25.5016 79.1364 25.2174 78.1214 24.6509C77.1064 24.0843 76.3157 23.2816 75.7491 22.2426C75.1826 21.2037 74.8984 20.0073 74.8984 18.6482C74.8984 17.2755 75.1774 16.0688 75.7371 15.0299C76.2968 13.9909 77.079 13.1933 78.0855 12.6336C79.0919 12.0739 80.249 11.7949 81.5601 11.7949C82.8215 11.7949 83.9512 12.0671 84.9508 12.6097C85.9486 13.1522 86.724 13.9242 87.2752 14.9221C87.8263 15.9199 88.1019 17.0667 88.1019 18.3607C88.1002 18.8399 88.0676 19.2713 88.0043 19.6547ZM84.6256 17.4022C84.6102 16.5395 84.2986 15.8498 83.691 15.3294C83.0834 14.8108 82.3405 14.5506 81.4625 14.5506C80.6324 14.5506 79.9323 14.8022 79.3658 15.3055C78.7992 15.8087 78.4518 16.507 78.3234 17.4022H84.6256Z"
        fill="#24282C" />
    <path
        d="M102.786 19.6547H93.0824C93.1628 20.6132 93.4983 21.3646 94.0888 21.9072C94.6793 22.4497 95.4068 22.7219 96.2694 22.7219C97.5155 22.7219 98.4021 22.1862 98.9293 21.1164H102.548C102.164 22.395 101.43 23.4442 100.343 24.2675C99.2562 25.0908 97.9228 25.5016 96.3413 25.5016C95.0627 25.5016 93.9177 25.2174 92.9027 24.6509C91.8877 24.0843 91.0969 23.2816 90.5304 22.2426C89.9638 21.2037 89.6797 20.0073 89.6797 18.6482C89.6797 17.2755 89.9587 16.0688 90.5184 15.0299C91.0781 13.9909 91.8603 13.1933 92.8667 12.6336C93.8732 12.0739 95.0302 11.7949 96.3413 11.7949C97.6028 11.7949 98.7324 12.0671 99.732 12.6097C100.73 13.1522 101.505 13.9242 102.056 14.9221C102.608 15.9199 102.883 17.0667 102.883 18.3607C102.881 18.8399 102.849 19.2713 102.786 19.6547ZM99.4085 17.4022C99.3931 16.5395 99.0816 15.8498 98.474 15.3294C97.8664 14.8108 97.1235 14.5506 96.2455 14.5506C95.4153 14.5506 94.7153 14.8022 94.1487 15.3055C93.5822 15.8087 93.2347 16.507 93.1064 17.4022H99.4085Z"
        fill="#24282C" />
    <path
        d="M105.264 15.0293C105.799 13.9904 106.529 13.1928 107.456 12.6331C108.382 12.0734 109.413 11.7944 110.547 11.7944C111.41 11.7944 112.232 11.9826 113.016 12.3575C113.798 12.7323 114.421 13.2321 114.885 13.8551V7.55469H118.287V25.2836H114.885V23.3187C114.469 23.9742 113.887 24.5014 113.135 24.9002C112.384 25.299 111.515 25.4993 110.523 25.4993C109.406 25.4993 108.382 25.2117 107.456 24.6366C106.53 24.0615 105.799 23.2519 105.264 22.2044C104.728 21.1586 104.461 19.9571 104.461 18.598C104.461 17.2561 104.728 16.0666 105.264 15.0293ZM114.428 16.5509C114.108 15.9673 113.676 15.5206 113.134 15.209C112.591 14.8975 112.007 14.7418 111.384 14.7418C110.761 14.7418 110.186 14.8941 109.659 15.1971C109.132 15.5 108.704 15.9433 108.377 16.527C108.05 17.1107 107.886 17.8004 107.886 18.5998C107.886 19.3991 108.05 20.0974 108.377 20.6965C108.704 21.2956 109.135 21.7543 109.671 22.0743C110.207 22.3944 110.777 22.5536 111.384 22.5536C112.007 22.5536 112.591 22.3978 113.134 22.0863C113.676 21.7748 114.108 21.3281 114.428 20.7444C114.748 20.1608 114.907 19.4624 114.907 18.6477C114.907 17.833 114.746 17.1329 114.428 16.5509Z"
        fill="#24282C" />
    <path
        d="M124.009 24.6509C122.988 24.0843 122.185 23.2816 121.601 22.2426C121.018 21.2037 120.727 20.0073 120.727 18.6482C120.727 17.2909 121.026 16.0928 121.625 15.0538C122.224 14.0149 123.042 13.2139 124.081 12.6456C125.12 12.0791 126.277 11.7949 127.556 11.7949C128.835 11.7949 129.992 12.0791 131.03 12.6456C132.068 13.2121 132.888 14.0149 133.487 15.0538C134.086 16.0928 134.385 17.2909 134.385 18.6482C134.385 20.0056 134.077 21.2037 133.463 22.2426C132.848 23.2816 132.016 24.0843 130.971 24.6509C129.925 25.2174 128.754 25.5016 127.46 25.5016C126.181 25.5016 125.031 25.2174 124.009 24.6509ZM129.172 22.1348C129.707 21.8387 130.134 21.3971 130.454 20.8049C130.774 20.2144 130.933 19.4955 130.933 18.6482C130.933 17.3868 130.601 16.4163 129.938 15.7368C129.276 15.0573 128.465 14.7184 127.506 14.7184C126.548 14.7184 125.745 15.0573 125.098 15.7368C124.451 16.4163 124.128 17.3868 124.128 18.6482C124.128 19.9097 124.442 20.8802 125.074 21.5597C125.706 22.2392 126.5 22.5781 127.458 22.5781C128.066 22.5781 128.636 22.4309 129.172 22.1348Z"
        fill="#24282C" />
    <path
        d="M31.9998 14.6133C31.9496 14.4815 30.2892 8.27692 24.7216 4.87422C23.6561 4.2238 20.0049 2.25202 15.2052 3.14035C14.1346 3.3389 8.52023 4.1348 6.44815 9.30389C6.29767 9.67873 4.4539 13.8927 6.96877 17.8397C9.4352 21.708 13.946 22.1547 15.3124 22.2916C19.2127 22.6785 22.3036 21.3965 23.388 20.758C19.3528 23.5411 15.7033 23.9947 12.6212 23.2947C-0.261038 20.3712 1.21952 1.61872 14.4027 0.668771C15.3834 0.598595 16.4315 0.619136 17.5506 0.745796C30.3584 2.19725 31.9756 14.4216 31.9998 14.6133Z"
        fill="url(#paint0_linear_15753_8214)" />
    <path
        d="M32.0016 14.6164C32.0016 14.6164 32.0016 14.6164 32.0016 14.6147C31.9773 14.423 30.3601 2.19863 17.5541 0.747179C16.435 0.620519 15.3868 0.599978 14.4062 0.670154C1.223 1.61839 -0.257549 20.3726 12.6246 23.296C15.7086 23.9961 19.3563 23.5425 23.3915 20.7594C22.9764 21.4988 22.5077 22.4933 21.2035 23.498C17.7426 26.3804 13.2456 26.1579 12.3669 26.0774C7.29742 25.6221 1.91312 21.4304 0.778494 15.907C-0.107071 11.5903 2.03074 8.05065 2.60324 7.13323C3.5355 5.6407 4.77218 4.34158 6.2043 3.26497C15.7829 -3.93923 29.7271 1.40957 31.8234 13.1324C31.9877 14.0516 32.005 14.6147 32.0016 14.6164Z"
        fill="url(#paint1_linear_15753_8214)" />
    <path
        d="M0 17.3831C0.0501589 17.5149 1.7106 23.7195 7.27824 27.1222C8.34368 27.7726 11.9949 29.7444 16.7946 28.8561C17.8652 28.6575 23.4796 27.8616 25.5517 22.6926C25.7021 22.3177 27.5459 18.1037 25.031 14.1567C22.5646 10.2885 18.0538 9.84173 16.6874 9.7048C12.7871 9.31797 9.69625 10.6 8.61177 11.2384C12.647 8.45532 16.2965 8.00174 19.3786 8.70179C32.2608 11.6252 30.7803 30.3777 17.5971 31.3277C16.6164 31.3979 15.5683 31.3773 14.4492 31.2507C1.64141 29.7992 0.0242147 17.5748 0 17.3831Z"
        fill="url(#paint2_linear_15753_8214)" />
    <path
        d="M0.000378209 17.3832C0.000378209 17.3832 0.000378209 17.3832 0.000378209 17.3849C0.0245929 17.5766 1.64178 29.801 14.4479 31.2525C15.5669 31.3791 16.6151 31.3997 17.5958 31.3295C30.7789 30.3813 32.2595 11.6271 19.3773 8.70361C16.2934 8.00356 12.6456 8.45714 8.61041 11.2402C9.02552 10.5008 9.49425 9.50636 10.7984 8.50164C14.2593 5.61928 18.7563 5.84179 19.635 5.92223C24.7045 6.37752 30.0888 10.5693 31.2234 16.0927C32.109 20.4094 29.9712 23.949 29.3987 24.8664C28.4664 26.359 27.2297 27.6581 25.7976 28.7347C16.219 35.9389 2.27482 30.5901 0.178523 18.8672C0.0142097 17.9481 -0.00308103 17.3849 0.000378209 17.3832Z"
        fill="url(#paint3_linear_15753_8214)" />
    <defs>
        <linearGradient id="paint0_linear_15753_8214" x1="59.5024" y1="-9.00098" x2="17.8495"
            y2="23.5863" gradientUnits="userSpaceOnUse">
            <stop stop-color="#30C862" />
            <stop offset="1" stop-color="#D3F36B" />
        </linearGradient>
        <linearGradient id="paint1_linear_15753_8214" x1="16.2842" y1="-2.16318e-06" x2="50.002"
            y2="64" gradientUnits="userSpaceOnUse">
            <stop stop-color="#D3F36B" />
            <stop offset="1" stop-color="#30C862" />
        </linearGradient>
        <linearGradient id="paint2_linear_15753_8214" x1="55.8032" y1="-1.21973" x2="14.1503"
            y2="31.3676" gradientUnits="userSpaceOnUse">
            <stop stop-color="#30C862" />
            <stop offset="1" stop-color="#D3F36B" />
        </linearGradient>
        <linearGradient id="paint3_linear_15753_8214" x1="15.7178" y1="5.88281" x2="49.4355"
            y2="69.8828" gradientUnits="userSpaceOnUse">
            <stop stop-color="#D3F36B" />
            <stop offset="1" stop-color="#30C862" />
        </linearGradient>
    </defs>
</svg>